<svg width="127" height="81" viewBox="0 0 127 81" fill="none" xmlns="http://www.w3.org/2000/svg">
<path d="M97.742 80.1832C92.5899 80.1832 87.9232 79.3687 83.7419 77.7399C79.6352 76.037 76.0884 73.5198 73.1018 70.1881C70.1897 66.8564 67.9497 62.7473 66.3817 57.8608C64.8137 52.9002 64.0297 47.1623 64.0297 40.647C64.0297 34.1316 64.8137 28.3567 66.3817 23.3221C67.9497 18.2135 70.1897 13.9563 73.1018 10.5506C76.0884 7.0708 79.6352 4.44245 83.7419 2.66555C87.9232 0.888639 92.5899 0.000183254 97.742 0.00018328C104.761 0.000183317 110.585 1.48094 115.214 4.44246C119.844 7.40397 123.54 11.8833 126.302 17.8803L113.646 24.5437C112.526 21.064 110.697 18.2875 108.158 16.2145C105.619 14.0674 102.147 12.9938 97.742 12.9938C92.2166 12.9938 87.8112 14.8448 84.5259 18.5467C81.3152 22.2486 79.7098 27.4312 79.7098 34.0946L79.7098 46.3109C79.7098 53.0483 81.3152 58.2309 84.5259 61.8588C87.8112 65.4126 92.2166 67.1895 97.742 67.1895C102.147 67.1895 105.731 66.0049 108.494 63.6357C111.331 61.2665 113.385 58.342 114.654 54.8622L126.638 61.8588C123.801 67.6337 120.03 72.1501 115.326 75.4077C110.622 78.5914 104.761 80.1832 97.742 80.1832Z" fill="black"/>
<path d="M49.7505 2.56524e-07L49.7505 55.995C49.7505 59.4901 49.1527 62.6505 47.9572 65.4762C46.8364 68.302 45.1925 70.7188 43.0256 72.7266C40.9334 74.7344 38.3556 76.296 35.292 77.4114C32.2285 78.5269 28.7913 79.0846 24.9805 79.0846C17.7326 79.0846 12.0912 77.2255 8.05624 73.5074C4.02132 69.7149 1.44344 64.6954 0.322632 58.449L13.9966 55.6604C14.669 59.0067 15.8646 61.6094 17.5832 63.4684C19.3765 65.2532 21.8049 66.1455 24.8684 66.1455C27.7826 66.1455 30.1736 65.2532 32.0416 63.4684C33.9844 61.6094 34.9558 58.7836 34.9558 54.9911L34.9558 12.0467L10.2979 12.0467L10.2979 5.17701e-08L49.7505 2.56524e-07Z" fill="black"/>
</svg>
